<svg width="160.299805" height="49.000000" viewBox="0 0 160.3 49" fill="none" xmlns="http://www.w3.org/2000/svg" xmlns:xlink="http://www.w3.org/1999/xlink">
	<desc>
			Created with Pixso.
	</desc>
	<defs>
		<clipPath id="clip2_44376">
			<rect id="logo" rx="-0.500000" width="47.000000" height="47.000000" transform="translate(0.500000 0.500000)" fill="white" fill-opacity="0"/>
		</clipPath>
		<linearGradient x1="65.900391" y1="43.000000" x2="159.900391" y2="43.000000" id="paint_linear_2_44369_0" gradientUnits="userSpaceOnUse">
			<stop stop-color="#FA6E1C"/>
			<stop offset="0.092067" stop-color="#CF3E0A"/>
			<stop offset="0.182728" stop-color="#F36719"/>
			<stop offset="0.250723" stop-color="#F4681A"/>
			<stop offset="0.315885" stop-color="#BE2C03"/>
			<stop offset="0.344452" stop-color="#E65814"/>
			<stop offset="0.449610" stop-color="#C73506"/>
			<stop offset="0.509824" stop-color="#D0400A"/>
			<stop offset="0.641352" stop-color="#C53305"/>
			<stop offset="0.726203" stop-color="#F66A1B"/>
			<stop offset="0.781841" stop-color="#D6470D"/>
			<stop offset="0.909125" stop-color="#FF741F"/>
			<stop offset="1.000000" stop-color="#FF741F"/>
		</linearGradient>
		<linearGradient x1="0.000015" y1="36.750000" x2="-2.010705" y2="44.237522" id="paint_linear_2_44371_0" gradientUnits="userSpaceOnUse">
			<stop offset="0.000229" stop-color="#FF741F"/>
			<stop offset="1.000000" stop-color="#ED6017"/>
		</linearGradient>
		<linearGradient x1="20.400005" y1="20.862421" x2="12.995502" y2="36.645512" id="paint_linear_2_44372_0" gradientUnits="userSpaceOnUse">
			<stop offset="0.000229" stop-color="#FF741F"/>
			<stop offset="1.000000" stop-color="#D1410B"/>
		</linearGradient>
		<linearGradient x1="38.773800" y1="3.600005" x2="25.191433" y2="24.877438" id="paint_linear_2_44373_0" gradientUnits="userSpaceOnUse">
			<stop offset="0.000229" stop-color="#FF741F"/>
			<stop offset="1.000000" stop-color="#B82500"/>
		</linearGradient>
		<linearGradient x1="-6.000003" y1="0.000001" x2="-16.332703" y2="15.537109" id="paint_linear_2_44374_0" gradientUnits="userSpaceOnUse">
			<stop stop-color="#C12F04"/>
			<stop offset="1.000000" stop-color="#E95B15"/>
		</linearGradient>
		<linearGradient x1="67.000000" y1="41.000000" x2="159.999878" y2="41.000000" id="paint_linear_2_44383_0" gradientUnits="userSpaceOnUse">
			<stop stop-color="#D8480D"/>
			<stop offset="0.339000" stop-color="#CB3A08"/>
			<stop offset="0.739000" stop-color="#FE731E"/>
			<stop offset="1.000000" stop-color="#ED5F17"/>
		</linearGradient>
	</defs>
	<path id="ТОП" d="M109.15 21.07Q110.47 18.1 110.47 14.11Q110.47 10.11 109.15 7.14Q108.37 5.38 107.12 4.09Q106.25 3.2 105.16 2.54Q102.48 0.89 98.41 0.89Q94.27 0.89 91.59 2.54Q90.51 3.19 89.65 4.07Q88.38 5.37 87.59 7.14Q86.28 10.11 86.28 14.08Q86.28 18.07 87.59 21.05Q88.38 22.85 89.66 24.16Q90.52 25.04 91.59 25.7Q94.27 27.36 98.38 27.36Q102.45 27.36 105.14 25.7Q106.31 24.99 107.21 24.03Q108.41 22.76 109.15 21.07ZM72.31 27L76.92 27L76.92 5.18L84.3 5.18L84.3 1.29L64.93 1.29L64.93 5.18L72.31 5.18L72.31 27ZM115.94 1.29L115.94 27L120.55 27L120.55 5.18L131.28 5.18L131.28 27L135.89 27L135.89 1.29L115.94 1.29ZM92.86 20.95Q91.14 18.46 91.14 14.11Q91.14 9.75 92.88 7.27Q93.33 6.64 93.91 6.16Q95.6 4.79 98.41 4.79Q101.3 4.79 102.97 6.21Q103.5 6.67 103.91 7.27Q105.61 9.75 105.61 14.11Q105.61 18.46 103.9 20.95Q103.49 21.54 102.95 22Q101.27 23.43 98.38 23.43Q95.55 23.43 93.86 22.04Q93.3 21.57 92.86 20.95Z" fill="#141414" fill-opacity="1.000000" fill-rule="evenodd"/>
	<rect id="logo" rx="-0.500000" width="47.000000" height="47.000000" transform="translate(0.500000 0.500000)" fill="#FFFFFF" fill-opacity="0"/>
	<g clip-path="url(#clip2_44376)">
		<path id="Rectangle 40517" d="M6 36L12 36L12 48L0 48L0 42C0 38.68 2.68 36 6 36Z" fill="url(#paint_linear_2_44371_0)" fill-opacity="1.000000" fill-rule="evenodd"/>
		<path id="Vector" d="M18 21.6C18 17.62 21.22 14.4 25.2 14.4L30 14.4L30 48L18 48L18 21.6Z" fill="url(#paint_linear_2_44372_0)" fill-opacity="1.000000" fill-rule="nonzero"/>
		<path id="Rectangle 40515" d="M42 0L48 0L48 48L36 48L36 6C36 2.68 38.68 0 42 0Z" fill="url(#paint_linear_2_44373_0)" fill-opacity="1.000000" fill-rule="evenodd"/>
		<path id="Rectangle 40516" d="M6 0L12 0L12 32L0 32L0 6C0 2.68 2.68 0 6 0Z" fill="url(#paint_linear_2_44374_0)" fill-opacity="1.000000" fill-rule="evenodd"/>
	</g>
	<path id="Union" d="M97.415 33.9999L99.457 33.9999C99.5771 34.3359 99.7646 34.5952 100.017 34.7776C100.279 34.9601 100.606 35.0513 100.999 35.0513C101.393 35.0513 101.716 34.9601 101.968 34.7776C102.229 34.5952 102.416 34.3359 102.526 33.9999L104.584 33.9999C104.382 34.8448 103.963 35.4642 103.329 35.8579C102.693 36.2516 101.917 36.4484 100.999 36.4484C100.082 36.4484 99.3057 36.2516 98.6699 35.8579C98.0361 35.4642 97.6172 34.8448 97.415 33.9999ZM91.0527 47.9996L89.9756 45.724L83.6914 45.724L82.6143 47.9996L79.877 47.9996L85.1846 37.1974L88.4814 37.1974L93.79 47.9996L91.0527 47.9996ZM94.9355 47.9996L94.9355 37.1974L97.4453 37.1974L97.4453 45.6034L103.843 37.1974L107.186 37.1974L107.186 47.9996L104.674 47.9996L104.674 39.4658L98.1875 47.9996L94.9355 47.9996ZM109.436 37.1974L112.007 37.1974L112.007 41.4607L118.51 41.4607L118.51 37.1974L121.08 37.1974L121.08 47.9996L118.51 47.9996L118.51 43.6067L112.007 43.6067L112.007 47.9996L109.436 47.9996L109.436 37.1974ZM123.331 47.9996L123.331 37.1974L125.842 37.1974L125.842 45.6027L132.239 37.1974L135.58 37.1974L135.58 47.9996L133.07 47.9996L133.07 39.4645L126.582 47.9996L123.331 47.9996ZM137.832 37.1974L140.403 37.1974L140.403 41.4607L146.906 41.4607L146.906 37.1974L149.477 37.1974L149.477 47.9996L146.906 47.9996L146.906 43.6067L140.403 43.6067L140.403 47.9996L137.832 47.9996L137.832 37.1974ZM160 37.1974L160 39.3722L154.299 39.3722L154.299 47.9996L151.728 47.9996L151.728 37.1974L160 37.1974ZM68.4307 37.2285C67.6406 37.2285 67 37.8313 67 38.575L67 44.4094L69.8613 44.4094L69.8613 37.2285L68.4307 37.2285ZM75.585 38.575C75.585 37.8313 76.2256 37.2285 77.0156 37.2285L78.4463 37.2285L78.4463 47.9999L75.585 47.9999L75.585 38.575ZM86.833 39.0857L84.6318 43.7363L89.0352 43.7363L86.833 39.0857ZM73.0088 40.4596C72.0605 40.4596 71.292 41.183 71.292 42.0753L71.292 47.9996L74.1533 47.9996L74.1533 40.4596L73.0088 40.4596ZM67 46.6537C67 45.91 67.6406 45.3073 68.4307 45.3073L69.8613 45.3073L69.8613 48L67 48L67 46.6537Z" clip-rule="evenodd" fill="url(#paint_linear_2_44383_0)" fill-opacity="1.000000" fill-rule="evenodd"/>
</svg>
