<svg width="306.000000" height="58.000000" viewBox="0 0 306 58" fill="none" xmlns="http://www.w3.org/2000/svg" xmlns:xlink="http://www.w3.org/1999/xlink">
	<desc>
			Created with Pixso.
	</desc>
	<defs/>
	<path id="350" d="M16.19 21.46C16.19 24.8 13.26 27.28 9.31 27.28C5.36 27.28 2.54 25.11 2.4 21.9L4.9 21.9C5.05 23.87 6.91 25.09 9.27 25.09C11.89 25.09 13.77 23.62 13.77 21.46C13.77 19.22 12.05 17.65 8.96 17.65L7.32 17.65L7.32 15.46L8.96 15.46C11.37 15.46 13.05 14.07 13.05 11.92C13.05 9.86 11.6 8.5 9.35 8.5C7.24 8.5 5.31 9.69 5.22 11.72L2.83 11.72C2.95 8.52 5.88 6.35 9.4 6.35C13.16 6.35 15.44 8.92 15.44 11.8C15.44 14.1 14.15 15.79 12.1 16.41L12.1 16.58C14.66 17 16.19 18.88 16.19 21.46ZM51 16.82C51 23.47 48.41 27.28 43.92 27.28C39.42 27.28 36.83 23.47 36.83 16.82C36.83 10.21 39.46 6.35 43.92 6.35C48.37 6.35 51 10.21 51 16.82ZM33.34 20.51C33.34 24.41 30.5 27.28 26.61 27.28C23.11 27.28 20.44 25.01 20.29 21.9L22.68 21.9C22.87 23.74 24.53 25.09 26.61 25.09C29.12 25.09 30.95 23.17 30.95 20.55C30.95 17.89 29.05 15.92 26.46 15.9C25.2 15.89 23.76 16.32 22.91 16.93L20.61 16.65L21.84 6.63L32.42 6.63L32.42 8.82L23.91 8.82L23.19 14.83L23.31 14.83C24.15 14.16 25.48 13.67 26.85 13.67C30.59 13.67 33.34 16.56 33.34 20.51ZM39.22 16.82C39.22 22.11 40.96 25.09 43.92 25.09C46.88 25.09 48.61 22.11 48.61 16.82C48.61 11.53 46.86 8.5 43.92 8.5C40.97 8.5 39.22 11.53 39.22 16.82Z" fill="#FF741F" fill-opacity="1.000000" fill-rule="evenodd"/>
	<path id="Монет" d="M10.98 41.73L15.21 53L16.54 53L20.82 41.75L20.9 41.75Q20.86 42.32 20.82 43.24Q20.77 44.16 20.77 45.09L20.77 53L22.38 53L22.38 40.14L20 40.14L15.97 50.67L15.89 50.67L11.93 40.14L9.54 40.14L9.54 53L11.03 53L11.03 45.2Q11.03 44.18 11 43.23Q10.96 42.29 10.91 41.73L10.98 41.73ZM32.88 51.8Q34.04 50.49 34.04 48.15Q34.04 46.55 33.47 45.45Q33.06 44.65 32.43 44.12Q32.18 43.92 31.9 43.75Q31.84 43.72 31.78 43.69Q30.83 43.17 29.59 43.17Q28.07 43.17 27.01 43.87Q26.63 44.12 26.31 44.47Q26.3 44.48 26.29 44.49Q25.11 45.78 25.11 48.15Q25.11 49.76 25.68 50.88Q26.13 51.76 26.83 52.3Q27.04 52.46 27.26 52.59Q27.41 52.68 27.57 52.76Q28.46 53.18 29.54 53.18Q31.03 53.18 32.08 52.49Q32.48 52.23 32.82 51.86Q32.85 51.83 32.88 51.8ZM53.86 43.71Q52.98 43.17 51.73 43.17Q50.64 43.17 49.78 43.62Q49.63 43.69 49.49 43.78Q49.29 43.91 49.11 44.06Q48.42 44.63 48 45.52Q47.46 46.66 47.46 48.24Q47.46 49.84 48.05 50.95Q48.43 51.68 49.02 52.17Q49.33 52.42 49.69 52.62Q50.74 53.18 52.11 53.18Q53.1 53.18 53.82 53.02Q54.54 52.87 55.28 52.55L55.28 51.16Q54.52 51.48 53.81 51.65Q53.1 51.83 52.18 51.83Q51.02 51.83 50.27 51.27Q50.09 51.14 49.94 50.97Q49.14 50.12 49.1 48.48L55.71 48.48L55.71 47.52Q55.71 46.21 55.23 45.23Q54.92 44.59 54.44 44.14Q54.18 43.9 53.86 43.71ZM38.13 47.36L38.13 43.35L36.54 43.35L36.54 53L38.13 53L38.13 48.69L43.36 48.69L43.36 53L44.95 53L44.95 43.35L43.36 43.35L43.36 47.36L38.13 47.36ZM61.67 44.68L64.82 44.68L64.82 43.35L56.99 43.35L56.99 44.68L60.1 44.68L60.1 53L61.67 53L61.67 44.68ZM50.34 44.83Q50.91 44.46 51.71 44.46Q52.64 44.46 53.19 44.92Q53.35 45.05 53.48 45.23Q54.03 45.99 54.05 47.22L49.14 47.22Q49.27 45.92 49.92 45.19Q50.11 44.98 50.34 44.83ZM27.42 50.86Q26.75 49.86 26.75 48.15Q26.75 46.44 27.41 45.47Q27.58 45.23 27.8 45.04Q28.45 44.5 29.56 44.5Q30.66 44.5 31.32 45.04Q31.54 45.22 31.71 45.47Q32.4 46.44 32.4 48.15Q32.4 49.86 31.71 50.86Q31.52 51.15 31.25 51.36Q30.61 51.86 29.57 51.86Q28.51 51.86 27.86 51.34Q27.61 51.14 27.42 50.86Z" fill="#FFFFFF" fill-opacity="1.000000" fill-rule="evenodd"/>
	<path id="500" d="M143.34 16.82C143.34 23.47 140.75 27.28 136.26 27.28C131.77 27.28 129.17 23.47 129.17 16.82C129.17 10.21 131.8 6.35 136.26 6.35C140.71 6.35 143.34 10.21 143.34 16.82ZM160.84 16.82C160.84 23.47 158.25 27.28 153.76 27.28C149.27 27.28 146.67 23.47 146.67 16.82C146.67 10.21 149.3 6.35 153.76 6.35C158.21 6.35 160.84 10.21 160.84 16.82ZM125.68 20.51C125.68 24.41 122.84 27.28 118.95 27.28C115.45 27.28 112.78 25.01 112.63 21.9L115.02 21.9C115.21 23.74 116.87 25.09 118.95 25.09C121.46 25.09 123.29 23.17 123.29 20.55C123.29 17.89 121.39 15.92 118.8 15.9C117.55 15.89 116.1 16.32 115.26 16.93L112.95 16.65L114.18 6.63L124.76 6.63L124.76 8.82L116.25 8.82L115.54 14.83L115.65 14.83C116.49 14.16 117.82 13.67 119.19 13.67C122.93 13.67 125.68 16.56 125.68 20.51ZM131.56 16.82C131.56 22.11 133.3 25.09 136.26 25.09C139.22 25.09 140.95 22.11 140.95 16.82C140.95 11.53 139.2 8.5 136.26 8.5C133.31 8.5 131.56 11.53 131.56 16.82ZM149.06 16.82C149.06 22.11 150.8 25.09 153.76 25.09C156.72 25.09 158.45 22.11 158.45 16.82C158.45 11.53 156.7 8.5 153.76 8.5C150.81 8.5 149.06 11.53 149.06 16.82Z" fill="#FF741F" fill-opacity="1.000000" fill-rule="evenodd"/>
	<path id="Устройств" d="M160.98 41.3Q161.66 40.61 161.78 39.35L160.29 39.35Q160.2 40.29 159.72 40.64Q159.24 40.99 158.42 40.99Q157.48 40.99 157.05 40.66Q156.63 40.32 156.54 39.35L155.07 39.35Q155.16 40.72 155.89 41.41Q156.62 42.09 158.38 42.09Q160.09 42.09 160.87 41.39Q160.93 41.35 160.98 41.3ZM108.37 51.47Q108.95 50.62 109.53 49.34L113.63 40.14L111.92 40.14L108.83 47.27Q108.75 47.45 108.65 47.73Q108.54 48.01 108.46 48.21L108.39 48.21Q108.3 47.95 108.17 47.68Q108.05 47.4 107.96 47.22L104.38 40.14L102.6 40.14L107.55 49.7Q107.05 50.8 106.46 51.23Q105.88 51.66 104.87 51.66Q104.42 51.66 104 51.57Q103.59 51.47 103.23 51.3L103.23 52.91Q103.59 53.03 104.03 53.1Q104.47 53.18 104.98 53.18Q106.2 53.18 106.99 52.75Q107.78 52.33 108.37 51.47ZM116.39 52.65Q117.39 53.18 118.67 53.18Q119.5 53.18 120.08 53.04Q120.67 52.91 121.16 52.65L121.16 51.25Q120.65 51.48 120.05 51.65Q119.45 51.81 118.66 51.81Q117.69 51.81 117.06 51.35Q116.8 51.16 116.59 50.88Q115.9 49.95 115.9 48.21Q115.9 45.93 117 45.07Q117.67 44.55 118.74 44.55Q119.25 44.55 119.82 44.7Q120.4 44.84 120.83 45L121.32 43.69Q120.89 43.47 120.2 43.32Q119.52 43.17 118.78 43.17Q117.48 43.17 116.47 43.69Q116.25 43.8 116.05 43.94Q115.32 44.45 114.85 45.33Q114.26 46.44 114.26 48.23Q114.26 49.94 114.83 51.04Q115.25 51.85 115.91 52.35Q116.14 52.52 116.39 52.65ZM138.51 43.63Q137.68 43.17 136.6 43.17Q135.43 43.17 134.73 43.6Q134.1 43.98 133.69 44.53Q133.64 44.59 133.6 44.66L133.52 44.66L133.31 43.35L132.01 43.35L132.01 57.31L133.6 57.31L133.6 53.36Q133.6 53.01 133.56 52.55Q133.52 52.08 133.49 51.77L133.6 51.77Q134.01 52.33 134.74 52.75Q135.47 53.18 136.58 53.18Q137.65 53.18 138.47 52.72Q139.03 52.41 139.47 51.9Q140.56 50.62 140.56 48.15Q140.56 45.65 139.47 44.41Q139.04 43.92 138.51 43.63ZM150.31 51.8Q151.47 50.49 151.47 48.15Q151.47 46.55 150.9 45.45Q150.49 44.65 149.86 44.12Q149.62 43.92 149.33 43.75Q149.27 43.72 149.21 43.69Q148.26 43.17 147.02 43.17Q145.5 43.17 144.44 43.87Q144.06 44.12 143.74 44.47Q143.73 44.48 143.72 44.49Q142.54 45.78 142.54 48.15Q142.54 49.76 143.11 50.88Q143.56 51.76 144.26 52.3Q144.47 52.46 144.69 52.59Q144.84 52.68 145 52.76Q145.89 53.18 146.97 53.18Q148.46 53.18 149.51 52.49Q149.91 52.23 150.25 51.86Q150.28 51.83 150.31 51.8ZM167.13 52.65Q168.14 53.18 169.42 53.18Q170.24 53.18 170.83 53.04Q171.41 52.91 171.9 52.65L171.9 51.25Q171.39 51.48 170.79 51.65Q170.19 51.81 169.4 51.81Q168.43 51.81 167.8 51.35Q167.54 51.16 167.33 50.88Q166.64 49.95 166.64 48.21Q166.64 45.93 167.74 45.07Q168.41 44.55 169.49 44.55Q169.99 44.55 170.57 44.7Q171.14 44.84 171.57 45L172.06 43.69Q171.63 43.47 170.94 43.32Q170.26 43.17 169.52 43.17Q168.22 43.17 167.21 43.69Q166.99 43.8 166.79 43.94Q166.07 44.45 165.6 45.33Q165 46.44 165 48.23Q165 49.94 165.57 51.04Q165.99 51.85 166.65 52.35Q166.88 52.52 167.13 52.65ZM126.95 44.68L130.1 44.68L130.1 43.35L122.27 43.35L122.27 44.68L125.39 44.68L125.39 53L126.95 53L126.95 44.68ZM155.45 49.88Q155.46 49.45 155.46 49.23L155.46 43.35L153.97 43.35L153.97 53L155.93 53L161.06 44.93Q161.04 45.16 161.03 45.63Q161.01 46.08 161 46.55Q160.99 47.02 160.99 47.31L160.99 53L162.46 53L162.46 43.35L160.52 43.35L155.36 51.43Q155.38 51.18 155.4 50.75Q155.43 50.31 155.45 49.88ZM177.7 44.68L180.85 44.68L180.85 43.35L173.01 43.35L173.01 44.68L176.13 44.68L176.13 53L177.7 53L177.7 44.68ZM190.18 46.95Q190.51 46.49 190.51 45.78Q190.51 44.92 190.09 44.4Q190.06 44.36 190.03 44.33Q190.03 44.33 190.03 44.32Q189.55 43.8 188.74 43.57Q187.92 43.35 186.89 43.35L182.75 43.35L182.75 53L186.91 53Q189 53 189.91 52.2Q190.35 51.8 190.58 51.31Q190.82 50.79 190.82 50.17Q190.82 49.31 190.39 48.81Q190.28 48.68 190.15 48.58Q190.01 48.48 189.87 48.39Q189.3 48.04 188.58 47.94L188.58 47.87Q189.43 47.69 189.97 47.18Q190.09 47.07 190.18 46.95ZM134.38 45.15Q135 44.5 136.31 44.5Q137.16 44.5 137.72 44.9Q138.05 45.13 138.28 45.49Q138.92 46.48 138.92 48.13Q138.92 49.22 138.64 50.06Q138.36 50.89 137.8 51.38Q137.71 51.46 137.6 51.52Q137.09 51.86 136.35 51.86Q135.05 51.86 134.42 51.21Q134.28 51.07 134.18 50.9Q133.6 49.94 133.6 48.15L133.6 47.85Q133.63 46.16 134.23 45.33Q134.3 45.24 134.38 45.15ZM144.85 50.86Q144.18 49.86 144.18 48.15Q144.18 46.44 144.84 45.47Q145.01 45.23 145.23 45.04Q145.88 44.5 146.99 44.5Q148.09 44.5 148.75 45.04Q148.97 45.22 149.14 45.47Q149.83 46.44 149.83 48.15Q149.83 49.86 149.14 50.86Q148.95 51.15 148.68 51.36Q148.04 51.86 147 51.86Q145.94 51.86 145.29 51.34Q145.04 51.14 144.85 50.86ZM188.69 45.23Q188.91 45.52 188.91 45.98Q188.91 46.29 188.78 46.53Q188.34 47.31 186.51 47.31L184.34 47.31L184.34 44.66L186.8 44.66Q187.92 44.66 188.41 44.98Q188.58 45.08 188.69 45.23ZM188.93 49.31Q189.18 49.65 189.18 50.17Q189.18 50.72 188.91 51.06Q188.77 51.24 188.55 51.36Q187.92 51.72 186.73 51.72L184.34 51.72L184.34 48.62L186.69 48.62Q187.92 48.62 188.55 48.98Q188.78 49.12 188.93 49.31Z" fill="#FFFFFF" fill-opacity="1.000000" fill-rule="evenodd"/>
	<path id="15" d="M253.78 6.63L256.25 6.63L256.25 27L253.78 27L253.78 9.21L253.66 9.21L248.69 12.52L248.69 10.01L253.78 6.63ZM275.18 20.51C275.18 24.41 272.34 27.28 268.46 27.28C264.96 27.28 262.28 25.01 262.13 21.9L264.52 21.9C264.71 23.74 266.37 25.09 268.46 25.09C270.97 25.09 272.79 23.17 272.79 20.55C272.79 17.89 270.9 15.92 268.3 15.9C267.05 15.89 265.61 16.32 264.76 16.93L262.45 16.65L263.69 6.63L274.27 6.63L274.27 8.82L265.76 8.82L265.04 14.83L265.15 14.83C266 14.16 267.32 13.67 268.7 13.67C272.44 13.67 275.18 16.56 275.18 20.51Z" fill="#FF741F" fill-opacity="1.000000" fill-rule="evenodd"/>
	<path id="Настроек" d="M232.31 53L233.93 53L233.93 40.14L232.31 40.14L232.31 45.58L225.72 45.58L225.72 40.14L224.1 40.14L224.1 53L225.72 53L225.72 47L232.31 47L232.31 53ZM248.91 52.65Q249.91 53.18 251.19 53.18Q252.02 53.18 252.6 53.04Q253.19 52.91 253.68 52.65L253.68 51.25Q253.17 51.48 252.57 51.65Q251.97 51.81 251.18 51.81Q250.21 51.81 249.58 51.35Q249.32 51.16 249.11 50.88Q248.42 49.95 248.42 48.21Q248.42 45.93 249.52 45.07Q250.19 44.55 251.26 44.55Q251.77 44.55 252.34 44.7Q252.92 44.84 253.35 45L253.84 43.69Q253.41 43.47 252.72 43.32Q252.04 43.17 251.3 43.17Q250 43.17 248.99 43.69Q248.77 43.8 248.57 43.94Q247.84 44.45 247.37 45.33Q246.78 46.44 246.78 48.23Q246.78 49.94 247.35 51.04Q247.77 51.85 248.43 52.35Q248.66 52.52 248.91 52.65ZM271.03 43.63Q270.2 43.17 269.12 43.17Q267.95 43.17 267.25 43.6Q266.62 43.98 266.21 44.53Q266.16 44.59 266.12 44.66L266.04 44.66L265.83 43.35L264.53 43.35L264.53 57.31L266.12 57.31L266.12 53.36Q266.12 53.01 266.08 52.55Q266.04 52.08 266.01 51.77L266.12 51.77Q266.53 52.33 267.26 52.75Q267.99 53.18 269.1 53.18Q270.17 53.18 270.99 52.72Q271.55 52.41 271.99 51.9Q273.08 50.62 273.08 48.15Q273.08 45.65 271.99 44.41Q271.56 43.92 271.03 43.63ZM282.83 51.8Q283.99 50.49 283.99 48.15Q283.99 46.55 283.42 45.45Q283.01 44.65 282.38 44.12Q282.14 43.92 281.85 43.75Q281.79 43.72 281.73 43.69Q280.78 43.17 279.54 43.17Q278.02 43.17 276.96 43.87Q276.58 44.12 276.26 44.47Q276.25 44.48 276.24 44.49Q275.06 45.78 275.06 48.15Q275.06 49.76 275.63 50.88Q276.08 51.76 276.78 52.3Q276.99 52.46 277.21 52.59Q277.36 52.68 277.52 52.76Q278.41 53.18 279.49 53.18Q280.98 53.18 282.03 52.49Q282.43 52.23 282.77 51.86Q282.8 51.83 282.83 51.8ZM292.35 43.71Q291.46 43.17 290.22 43.17Q289.12 43.17 288.26 43.62Q288.11 43.69 287.98 43.78Q287.78 43.91 287.6 44.06Q286.9 44.63 286.48 45.52Q285.95 46.66 285.95 48.24Q285.95 49.84 286.53 50.95Q286.92 51.68 287.5 52.17Q287.81 52.42 288.17 52.62Q289.23 53.18 290.59 53.18Q291.58 53.18 292.3 53.02Q293.02 52.87 293.76 52.55L293.76 51.16Q293.01 51.48 292.29 51.65Q291.58 51.83 290.66 51.83Q289.51 51.83 288.76 51.27Q288.58 51.14 288.42 50.97Q287.62 50.12 287.59 48.48L294.19 48.48L294.19 47.52Q294.19 46.21 293.71 45.23Q293.41 44.59 292.92 44.14Q292.66 43.9 292.35 43.71ZM243.49 43.96Q242.64 43.19 240.88 43.19Q239.94 43.19 239.08 43.43Q238.21 43.67 237.58 44.01L238.07 45.2Q238.67 44.91 239.35 44.69Q239.39 44.67 239.44 44.66Q240.09 44.46 240.79 44.46Q241.74 44.46 242.26 44.93Q242.79 45.4 242.79 46.61L242.79 47.18L241.15 47.23Q238.79 47.31 237.65 48.09Q237.15 48.44 236.87 48.92Q236.52 49.52 236.52 50.31Q236.52 51.57 237.14 52.26Q237.26 52.38 237.39 52.49Q237.5 52.57 237.62 52.65Q238.42 53.18 239.57 53.18Q240.79 53.18 241.48 52.8Q242.18 52.42 242.8 51.63L242.88 51.63L243.18 53L244.33 53L244.33 46.43Q244.33 44.74 243.5 43.97Q243.49 43.96 243.49 43.96ZM259.47 44.68L262.62 44.68L262.62 43.35L254.79 43.35L254.79 44.68L257.91 44.68L257.91 53L259.47 53L259.47 44.68ZM304.08 43.35L302.35 43.35L298.23 48.03L298.23 43.35L296.64 43.35L296.64 53L298.23 53L298.23 48.1L302.58 53L304.42 53L299.96 47.99L304.08 43.35ZM288.83 44.83Q289.39 44.46 290.2 44.46Q291.13 44.46 291.67 44.92Q291.83 45.05 291.96 45.23Q292.52 45.99 292.54 47.22L287.62 47.22Q287.75 45.92 288.41 45.19Q288.6 44.98 288.83 44.83ZM266.9 45.15Q267.52 44.5 268.83 44.5Q269.68 44.5 270.24 44.9Q270.57 45.13 270.8 45.49Q271.44 46.48 271.44 48.13Q271.44 49.22 271.16 50.06Q270.88 50.89 270.32 51.38Q270.23 51.46 270.12 51.52Q269.61 51.86 268.87 51.86Q267.57 51.86 266.94 51.21Q266.81 51.07 266.7 50.9Q266.12 49.94 266.12 48.15L266.12 47.85Q266.15 46.16 266.75 45.33Q266.82 45.24 266.9 45.15ZM277.37 50.86Q276.7 49.86 276.7 48.15Q276.7 46.44 277.36 45.47Q277.53 45.23 277.75 45.04Q278.4 44.5 279.51 44.5Q280.61 44.5 281.26 45.04Q281.49 45.22 281.66 45.47Q282.35 46.44 282.35 48.15Q282.35 49.86 281.66 50.86Q281.47 51.15 281.2 51.36Q280.56 51.86 279.52 51.86Q278.46 51.86 277.81 51.34Q277.56 51.14 277.37 50.86ZM238.85 48.91Q239.55 48.41 241.35 48.33L242.77 48.28L242.77 49.14Q242.77 50.35 242.17 51.02Q242.07 51.13 241.96 51.22Q241.8 51.35 241.64 51.45Q240.92 51.9 239.93 51.9Q239.16 51.9 238.67 51.53Q238.66 51.52 238.65 51.52Q238.56 51.45 238.49 51.36Q238.16 50.99 238.16 50.33Q238.16 49.8 238.4 49.4Q238.57 49.12 238.85 48.91Z" fill="#FFFFFF" fill-opacity="1.000000" fill-rule="evenodd"/>
</svg>
